<?xml version="1.0" ?><svg viewBox="0 0 22.495 22.495" xmlns="http://www.w3.org/2000/svg"><g data-name="Layer 2" id="Layer_2"><g data-name="Layer 1" id="Layer_1-2"><path d="M22.465,22.017l-3.181-7.271a.342.342,0,0,0-.312-.2H15.09c1.587-2.222,3.1-5.015,3.1-7.6a6.94,6.94,0,0,0-13.88,0c0,2.587,1.51,5.38,3.1,7.6H3.522a.342.342,0,0,0-.312.2L.029,22.017a.343.343,0,0,0,.312.477H22.153A.343.343,0,0,0,22.465,22.017Zm-3.717-6.793,1.292,2.953H12.065a34.3,34.3,0,0,0,2.524-2.953ZM4.989,6.94c.294-8.284,12.224-8.281,12.516,0,0,4.493-5.091,9.913-6.258,11.1C10.08,16.854,4.989,11.435,4.989,6.94ZM3.746,15.224H6.289l-.877,3.063H2.4ZM.863,21.813l1.244-2.844H5.669A.342.342,0,0,0,6,18.722l1-3.5h.907a33.945,33.945,0,0,0,2.765,3.2L3.9,21.813Zm4.557,0,5.908-2.955h5.088l.754,2.955Zm12.453,0-.754-2.955h3.22l1.293,2.955Zm-2.4-12.166a.342.342,0,0,0,.207-.313V4.669a.342.342,0,0,0-.207-.313L11.381,2.6a.34.34,0,0,0-.269,0L7.023,4.356a.341.341,0,0,0-.206.313V9.334a.341.341,0,0,0,.206.313l4.089,1.758a.349.349,0,0,0,.269,0ZM15,9.11l-3.408,1.464V6.651L15,5.187Zm-4.09,1.464L7.5,9.11V5.187l3.408,1.464Zm.341-4.519L8.021,4.669l3.225-1.386,3.227,1.386Z" data-name="package tracking" id="package_tracking"/></g></g></svg>